 <svg xmlns="http://www.w3.org/2000/svg" viewBox="0 0 200 250">
  <g transform="translate(140,0) scale(1.2)">
    <circle cx="27" cy="19" r="2" fill="#FF0000"/>
    <circle cx="37" cy="19" r="2" fill="#FF0000"/>
    <path d="M32,25.91a6.38,6.38,0,0,0,3.55-1.08l-1.1-1.66a4.41,4.41,0,0,1-4.9,0l-1.1,1.66A6.38,6.38,0,0,0,32,25.91Z" fill="#FF0000"/>
    <path d="M53.61,36.29A7,7,0,0,0,47.67,33H46.9A5,5,0,0,0,42,29H38a10,10,0,0,0,3.83-6H42a4,4,0,0,0,.84-7.91,11.33,11.33,0,1,0-22.34.21A4,4,0,0,0,22,23h.2A10,10,0,0,0,26,29H22a5,5,0,0,0-4.9,4h-.77a7,7,0,0,0-5.94,3.29L3.22,47.77A7.93,7.93,0,0,0,2,52a8,8,0,0,0,8,8h7v2h2V60h3v2h2V60h1a1,1,0,0,0,1-1V52a1,1,0,0,0-1-1H24V35h1.08a7,7,0,0,0,13.84,0H40V51H39a1,1,0,0,0-1,1v7a1,1,0,0,0,1,1h1v2h2V60h3v2h2V60h7a8,8,0,0,0,8-8,7.93,7.93,0,0,0-1.22-4.24ZM49.57,51,47,46.72V43.3L52.13,51ZM44.82,33H38a1,1,0,0,1-1-1V31h5A3,3,0,0,1,44.82,33ZM44,19a2,2,0,0,1-2,2V17A2,2,0,0,1,44,19ZM39,7.53a9.25,9.25,0,0,1,2,7A8.6,8.6,0,0,1,37,9.86V5.69A9,9,0,0,1,39,7.53Zm-14.62,0A9.31,9.31,0,0,1,31.65,4,9.19,9.19,0,0,1,35,4.63v5c-3.14,3.6-10.1,4.91-12.56,5.27A9.31,9.31,0,0,1,24.34,7.53ZM20,19a2,2,0,0,1,2-2v4A2,2,0,0,1,20,19Zm4,2V16.67c3-.54,8.36-1.87,11.66-4.86A11,11,0,0,0,40,16.28V21a8,8,0,0,1-16,0ZM22,31h5v1a1,1,0,0,1-1,1H19.18A3,3,0,0,1,22,31ZM14.43,51H11.87L17,43.3v3.42ZM4,52a6,6,0,0,1,.91-3.18l7.17-11.48A5,5,0,0,1,16.33,35H17v4.7L9.17,51.45a1,1,0,0,0-.05,1A1,1,0,0,0,10,53h4v5H10A6,6,0,0,1,4,52Zm20,6H16V52.28l1-1.67V52a1,1,0,0,0,1,1h6Zm-2-7H19V35h3ZM32,39a5,5,0,0,1-4.92-4.21A3,3,0,0,0,29,32V30.54a10,10,0,0,0,6,0V32a3,3,0,0,0,1.92,2.79A5,5,0,0,1,32,39Zm10-4h3V51H42ZM40,53h6a1,1,0,0,0,1-1V50.61l1,1.67V58H40Zm14,5H50V53h4a1,1,0,0,0,.88-.53,1,1,0,0,0-.05-1L47,39.7V35h.67a5,5,0,0,1,4.25,2.35l7.17,11.48A6,6,0,0,1,54,58Z" fill="#FF0000"/>
  </g>
</svg>