<svg xmlns="http://www.w3.org/2000/svg" viewBox="0 0 64 80" x="0px" y="0px">

<g>
<circle cx="27" cy="19" r="2"/>
<circle cx="37" cy="19" r="2"/>
      <path d="M46.337,36.674c-1.936,0-3.786,0.564-5.38,1.638l-2.283-1.434c-0.526-0.331-1.175-0.257-1.614,0.182   c-0.439,0.439-0.513,1.089-0.182,1.614l1.434,2.283c-1.073,1.594-1.638,3.444-1.638,5.38c0,5.328,4.334,9.663,9.663,9.663   c2.367,0,4.644-0.865,6.413-2.436c0.291-0.258,0.317-0.702,0.059-0.993c-0.258-0.29-0.702-0.316-0.993-0.059   c-1.511,1.342-3.458,2.081-5.48,2.081c-4.553,0-8.256-3.704-8.256-8.257c0-1.793,0.567-3.5,1.64-4.936   c0.174-0.233,0.187-0.549,0.032-0.795L38.31,38.31l2.297,1.443c0.246,0.155,0.562,0.142,0.795-0.032   c1.435-1.073,3.142-1.64,4.936-1.64c4.552,0,8.256,3.704,8.256,8.257c0,1.479-0.396,2.931-1.146,4.198   c-0.198,0.334-0.087,0.766,0.247,0.963c0.334,0.198,0.765,0.087,0.963-0.247C55.536,49.768,56,48.068,56,46.337   C56,41.009,51.665,36.674,46.337,36.674L46.337,36.674z M46.337,36.674" fill="#FF0000"/>
      <path d="M35.328,25.101v-4.398C35.328,13.699,29.629,8,22.625,8c-2.527,0-4.968,0.741-7.06,2.142   c-0.323,0.216-0.409,0.653-0.193,0.976c0.216,0.322,0.653,0.409,0.975,0.193c1.859-1.246,4.03-1.904,6.277-1.904   c6.229,0,11.297,5.068,11.297,11.297v4.266c-4.213,0.062-5.895-3.84-6.571-7.439c-0.284-1.516-2.463-1.768-3.072-0.331   c-1.128,2.661-2.568,5.067-5.246,6.386c-2.374,1.169-5.098,1.392-7.705,1.385v-4.266c0-2.865,1.075-5.597,3.026-7.694   c0.265-0.284,0.249-0.729-0.036-0.994c-0.284-0.265-0.73-0.249-0.994,0.036c-2.194,2.358-3.403,5.431-3.403,8.652v4.35   C8.817,25.344,8,26.352,8,27.547c0,1.478,1.26,2.604,2.704,2.578c0.03,1.513,0.346,2.957,0.895,4.282   c-0.54,1.19-0.814,2.46-0.814,3.781c0,1.601,0.419,3.177,1.212,4.558c0.004,0.008,0.009,0.015,0.013,0.022   c-0.691,1.499-1.06,3.15-1.06,4.868v5.785c0,1.421,1.157,2.578,2.578,2.578H31.56c1.421,0,2.578-1.157,2.578-2.578v-5.785   c0-1.659-0.343-3.256-0.99-4.714c0.862-1.426,1.316-3.055,1.316-4.735c0-1.372-0.311-2.736-0.9-3.965   c0.503-1.273,0.792-2.654,0.821-4.098c1.445,0.031,2.704-1.101,2.704-2.578C37.089,26.411,36.351,25.444,35.328,25.101   L35.328,25.101z M12.192,38.188c0-0.713,0.094-1.409,0.281-2.08c0.657,1.06,1.478,2.009,2.425,2.812   c-0.802,0.702-1.494,1.497-2.063,2.364C12.412,40.313,12.192,39.257,12.192,38.188L12.192,38.188z M22.545,44.656   c-0.58,0-0.878-0.554-0.91-1.064l0.91-1.021l0.91,1.021C23.398,43.994,23.141,44.656,22.545,44.656L22.545,44.656z M23.631,41.677   c1.132-0.104,2.218-0.367,3.236-0.767l-1.225,2.574c-0.13,0.119-0.264,0.119-0.401-0.001L23.631,41.677z M19.848,43.483   c-0.138,0.12-0.272,0.12-0.401,0.001l-1.225-2.574c1.018,0.4,2.104,0.664,3.236,0.767L19.848,43.483z M12.357,53.422v-5.785   c0-3.074,1.341-5.908,3.696-7.852c0.037,0.025,0.074,0.049,0.111,0.073l2.043,4.292c0.337,0.71,1.319,0.987,2.023,0.727   l-0.809,9.717h-5.892C12.883,54.594,12.357,54.068,12.357,53.422L12.357,53.422z M20.831,54.594l0.729-8.753   c0.298,0.143,0.632,0.222,0.984,0.222c0.352,0,0.686-0.079,0.984-0.222l0.729,8.753H20.831z M32.732,53.422   c0,0.646-0.526,1.172-1.172,1.172h-5.891l-0.809-9.717c0.702,0.26,1.685-0.014,2.023-0.727l2.042-4.292   c0.038-0.024,0.075-0.048,0.111-0.073c2.338,1.929,3.696,4.821,3.696,7.852V53.422z M33.058,38.188c0,1.13-0.242,2.233-0.708,3.244   c-0.588-0.925-1.312-1.771-2.159-2.512c1-0.847,1.858-1.857,2.533-2.988C32.944,36.661,33.058,37.422,33.058,38.188L33.058,38.188z    M34.511,28.719h-0.827c-0.388,0-0.703,0.315-0.703,0.703v0.462c0,5.755-4.682,10.437-10.437,10.437s-10.437-4.682-10.437-10.437   v-0.462c0-0.388-0.315-0.703-0.703-0.703h-0.827c-0.646,0-1.172-0.526-1.172-1.172c0-0.646,0.526-1.172,1.172-1.172h1.076   c2.958,0,6.075-0.381,8.676-1.889c2.617-1.517,4.095-4.029,5.244-6.739c0.153-0.181,0.285-0.167,0.396,0.041   c0.738,3.933,2.808,8.586,7.466,8.586h1.076c0.646,0,1.172,0.526,1.172,1.172C35.683,28.193,35.158,28.719,34.511,28.719   L34.511,28.719z M34.511,28.719" fill="#FF0000"/>
      <path d="M24.605,33.599c-0.551,0.551-1.283,0.854-2.061,0.854c-0.778,0-1.51-0.304-2.061-0.854c-0.275-0.275-0.72-0.275-0.995,0   c-0.274,0.274-0.274,0.72,0,0.994c0.817,0.817,1.902,1.267,3.055,1.267c1.154,0,2.239-0.45,3.056-1.267   c0.274-0.274,0.274-0.72,0-0.994C25.326,33.324,24.88,33.324,24.605,33.599L24.605,33.599z M24.605,33.599" fill="#FF0000"/>
      <path d="M17.219,47.703h-2.375c-0.388,0-0.703,0.315-0.703,0.703c0,0.388,0.315,0.703,0.703,0.703h2.375   c0.388,0,0.703-0.315,0.703-0.703C17.922,48.018,17.607,47.703,17.219,47.703L17.219,47.703z M17.219,47.703" fill="#FF0000"/>
      <path d="M44.469,50.945c0.334,0.14,0.779-0.04,0.92-0.378l3.3-7.9c0.15-0.358-0.02-0.77-0.378-0.92   c-0.358-0.149-0.77,0.02-0.919,0.378l-3.3,7.9C43.942,50.383,44.111,50.795,44.469,50.945L44.469,50.945z M44.469,50.945" fill="#FF0000"/>
      <path d="M45.59,43.73c0-1.326-0.97-2.405-2.162-2.405c-1.192,0-2.161,1.079-2.161,2.405c0,1.327,0.969,2.406,2.161,2.406   C44.621,46.136,45.59,45.057,45.59,43.73L45.59,43.73z M43.429,44.729c-0.409,0-0.755-0.458-0.755-0.999   c0-0.542,0.346-0.999,0.755-0.999c0.41,0,0.755,0.458,0.755,0.999C44.184,44.272,43.838,44.729,43.429,44.729L43.429,44.729z    M43.429,44.729" fill="#FF0000"/>
      <path d="M49.246,51.537c1.191,0,2.161-1.079,2.161-2.405c0-1.327-0.97-2.406-2.161-2.406c-1.192,0-2.162,1.079-2.162,2.406   C47.084,50.458,48.054,51.537,49.246,51.537L49.246,51.537z M49.246,48.132c0.409,0,0.755,0.458,0.755,0.999   c0,0.542-0.346,1-0.755,1c-0.41,0-0.755-0.458-0.755-1C48.49,48.59,48.836,48.132,49.246,48.132L49.246,48.132z M49.246,48.132" fill="#FF0000"/>
    </g>
  </g>

</svg>